<?xml version="1.0" encoding="UTF-8"?>
<svg width="24px" height="24px" viewBox="0 0 24 24" version="1.1" xmlns="http://www.w3.org/2000/svg" xmlns:xlink="http://www.w3.org/1999/xlink">
    <title>Icon-Architecture/16/Arch_AWS-Snowcone_16</title>
    <g id="Icon-Architecture/16/Arch_AWS-Snowcone_16" stroke="none" stroke-width="1" fill="none" fill-rule="evenodd">
        <g id="Icon-Architecture-BG/16/Storage" fill="#7AA116">
            <rect id="Rectangle" x="0" y="0" width="24" height="24"></rect>
        </g>
        <g id="Icon-Service/16/AWS-Snowcone_16" transform="translate(4.000000, 6.000000)" fill="#FFFFFF">
            <path d="M13,6.5 L13,9.5 C13,9.776 12.776,10 12.5,10 L3.5,10 C3.224,10 3,9.776 3,9.5 L3,6.5 C3,6.224 3.224,6 3.5,6 L5,6 L5,7 L4,7 L4,9 L12,9 L12,7 L11,7 L11,6 L12.5,6 C12.776,6 13,6.224 13,6.5 L13,6.5 Z M15.042,11 L8.072,11 L1,11 L1,4.485 C1,4.218 1.218,4 1.485,4 L14.557,4 C14.824,4 15,4.218 15,4.485 L15.042,11 Z M3.562,1.197 L3.655,1.104 C3.695,1.064 3.744,1.015 3.842,1 L12.238,1.004 C12.256,1.015 12.305,1.064 12.345,1.104 L13.878,3 L2.115,3 L3.562,1.197 Z M15.355,3.237 L13.132,0.476 L13.053,0.398 C12.866,0.211 12.655,0 12.158,0 L3.842,0 C3.345,0 3.134,0.211 2.947,0.398 L0.582,3.314 C0.23,3.586 0,4.007 0,4.485 L0,11.157 C0,11.622 0.374,12 0.833,12 L15.208,12 C15.668,12 16.042,11.622 16.042,11.157 L16.042,4.485 C16.042,3.961 15.768,3.501 15.355,3.237 L15.355,3.237 Z M7,7 L9,7 L9,6 L7,6 L7,7 Z M6.5,8 L9.5,8 C9.776,8 10,7.776 10,7.5 L10,5.5 C10,5.224 9.776,5 9.5,5 L6.5,5 C6.224,5 6,5.224 6,5.5 L6,7.5 C6,7.776 6.224,8 6.5,8 L6.5,8 Z" id="AWS-Snowcone_16_Squid"></path>
        </g>
    </g>
</svg>