<?xml version="1.0" encoding="UTF-8"?>
<svg width="24px" height="24px" viewBox="0 0 24 24" version="1.1" xmlns="http://www.w3.org/2000/svg" xmlns:xlink="http://www.w3.org/1999/xlink">
    <title>Icon-Architecture/16/Arch_Amazon-GameSparks_16</title>
    <g id="Icon-Architecture/16/Arch_Amazon-GameSparks_16" stroke="none" stroke-width="1" fill="none" fill-rule="evenodd">
        <g id="Icon-Architecture-BG/16/Game-Tech" fill="#8C4FFF">
            <rect id="Rectangle" x="0" y="0" width="24" height="24"></rect>
        </g>
        <g id="Icon-Service/16/Amazon-GameSparks_16" transform="translate(4.000000, 5.500000)" fill="#FFFFFF">
            <path d="M15,13 C15,13.234 14.733,13.5 14.5,13.5 C13.844,13.5 13.585,12.778 13.291,11.758 C13.186,11.391 13.085,11.043 12.944,10.771 C12.858,10.604 12.687,10.5 12.5,10.5 L10.5,10.5 C10.313,10.5 10.142,10.604 10.056,10.771 C9.915,11.043 9.814,11.391 9.709,11.758 C9.415,12.778 9.156,13.5 8.5,13.5 C8.267,13.5 8,13.234 8,13 L8,9.5 C8,8.949 8.447,8.5 8.996,8.5 L8.999,8.5 C9.349,8.5 9.642,8.575 9.824,8.712 C9.938,8.797 10,8.899 10,9 C10,9.276 10.224,9.5 10.5,9.5 L12.5,9.5 C12.776,9.5 13,9.276 13,9 C13,8.956 13.048,8.867 13.153,8.778 C13.354,8.608 13.764,8.439 14.258,8.521 C14.681,8.591 15,9.009 15,9.492 L15,13 Z M14.422,7.535 C13.723,7.418 12.991,7.604 12.506,8.015 C12.336,8.16 12.205,8.325 12.119,8.5 L10.896,8.5 C10.8,8.275 10.639,8.072 10.424,7.912 C10.063,7.642 9.571,7.5 8.999,7.5 L8.995,7.5 C7.896,7.501 7,8.398 7,9.5 L7,13 C7,13.785 7.715,14.5 8.5,14.5 C9.959,14.5 10.387,13.017 10.67,12.035 C10.725,11.843 10.778,11.658 10.833,11.5 L12.167,11.5 C12.222,11.658 12.275,11.843 12.33,12.035 C12.613,13.017 13.041,14.5 14.5,14.5 C15.285,14.5 16,13.785 16,13 L16,9.492 C16,8.525 15.321,7.684 14.422,7.535 L14.422,7.535 Z M11,2.5 L10,2.5 L10,1.5 L11,1.5 L11,0.5 L12,0.5 L12,1.5 L13,1.5 L13,2.5 L12,2.5 L12,3.5 L11,3.5 L11,2.5 Z M3.75,5.605 C3.4,4.954 2.887,4.41 2.276,4.045 C2.887,3.681 3.4,3.137 3.75,2.486 C4.1,3.137 4.613,3.681 5.224,4.045 C4.613,4.41 4.1,4.954 3.75,5.605 L3.75,5.605 Z M7.5,4.045 C7.5,3.769 7.276,3.545 7,3.545 C5.51,3.545 4.25,2.151 4.25,0.5 C4.25,0.224 4.026,0 3.75,0 C3.474,0 3.25,0.224 3.25,0.5 C3.25,2.151 1.99,3.545 0.5,3.545 C0.224,3.545 0,3.769 0,4.045 C0,4.322 0.224,4.545 0.5,4.545 C1.99,4.545 3.25,5.94 3.25,7.591 C3.25,7.867 3.474,8.091 3.75,8.091 C4.026,8.091 4.25,7.867 4.25,7.591 C4.25,5.94 5.51,4.545 7,4.545 C7.276,4.545 7.5,4.322 7.5,4.045 L7.5,4.045 Z" id="Fill-6"></path>
        </g>
    </g>
</svg>