<?xml version="1.0" encoding="UTF-8"?>
<svg width="24px" height="24px" viewBox="0 0 24 24" version="1.1" xmlns="http://www.w3.org/2000/svg" xmlns:xlink="http://www.w3.org/1999/xlink">
    <title>Icon-Architecture/16/Arch_AWS-GameKit_16</title>
    <g id="Icon-Architecture/16/Arch_AWS-GameKit_16" stroke="none" stroke-width="1" fill="none" fill-rule="evenodd">
        <g id="Icon-Architecture-BG/16/Game-Tech" fill="#8C4FFF">
            <rect id="Rectangle" x="0" y="0" width="24" height="24"></rect>
        </g>
        <g id="Icon-Service/16/AWS-GameKit_16" transform="translate(4.000000, 4.000000)" fill="#FFFFFF">
            <path d="M15,14.5 C15,14.734 14.733,15 14.5,15 C13.844,15 13.585,14.278 13.291,13.258 C13.186,12.891 13.085,12.543 12.944,12.271 C12.858,12.104 12.687,12 12.5,12 L10.5,12 C10.313,12 10.142,12.104 10.056,12.271 C9.915,12.543 9.814,12.891 9.709,13.258 C9.415,14.278 9.156,15 8.5,15 C8.267,15 8,14.734 8,14.5 L8,11 C8,10.449 8.447,10 8.996,10 L8.999,10 C9.349,10 9.642,10.075 9.824,10.212 C9.938,10.297 10,10.399 10,10.5 C10,10.776 10.224,11 10.5,11 L12.5,11 C12.776,11 13,10.776 13,10.5 C13,10.456 13.048,10.367 13.153,10.278 C13.354,10.108 13.764,9.939 14.258,10.021 C14.681,10.091 15,10.509 15,10.992 L15,14.5 Z M14.422,9.035 C13.723,8.918 12.991,9.104 12.506,9.515 C12.336,9.66 12.205,9.825 12.119,10 L10.896,10 C10.8,9.775 10.639,9.572 10.424,9.412 C10.063,9.142 9.571,9 8.999,9 L8.995,9 C7.896,9.001 7,9.898 7,11 L7,14.5 C7,15.285 7.715,16 8.5,16 C9.959,16 10.387,14.517 10.67,13.535 C10.725,13.343 10.778,13.158 10.833,13 L12.167,13 C12.222,13.158 12.275,13.343 12.33,13.535 C12.613,14.517 13.041,16 14.5,16 C15.285,16 16,15.285 16,14.5 L16,10.992 C16,10.025 15.321,9.184 14.422,9.035 L14.422,9.035 Z M13,6 L13,4.5 C13,4.224 12.776,4 12.5,4 L10.5,4 C10.224,4 10,4.224 10,4.5 L10,6 L6,6 L6,4.5 C6,4.224 5.776,4 5.5,4 L3.5,4 C3.224,4 3,4.224 3,4.5 L3,6 L1,6 L1,4.522 L2.691,3 L4,3 L5,3 L11.001,3 L12.001,3 L13.309,3 L15,4.522 L15,6 L13,6 Z M11,7 L12,7 L12,5 L11,5 L11,7 Z M4,7 L5,7 L5,5 L4,5 L4,7 Z M5,2 L11.001,2 L11.001,1 L5,1 L5,2 Z M15.834,3.928 L13.834,2.128 C13.742,2.046 13.623,2 13.5,2 L12.001,2 L12.001,0.5 C12.001,0.224 11.777,0 11.501,0 L4.5,0 C4.224,0 4,0.224 4,0.5 L4,2 L2.5,2 C2.377,2 2.258,2.046 2.166,2.128 L0.166,3.928 C0.061,4.023 0,4.158 0,4.3 L0,6.5 L0,11 C0,11.645 0.355,12 1,12 L6.001,12 L6.001,11 L1,10.993 L1,7 L3,7 L3,7.5 C3,7.776 3.224,8 3.5,8 L5.5,8 C5.776,8 6,7.776 6,7.5 L6,7 L10,7 L10,7.5 C10,7.776 10.224,8 10.5,8 L12.5,8 C12.776,8 13,7.776 13,7.5 L13,7 L15,7 L15,9 L16,9 L16,6.5 L16,4.3 C16,4.158 15.939,4.023 15.834,3.928 L15.834,3.928 Z" id="Fill-1"></path>
        </g>
    </g>
</svg>