<?xml version="1.0" encoding="UTF-8"?>
<svg width="24px" height="24px" viewBox="0 0 24 24" version="1.1" xmlns="http://www.w3.org/2000/svg" xmlns:xlink="http://www.w3.org/1999/xlink">
    <title>Icon-Architecture/16/Arch_Amazon-WorkSpaces-Thin-Client_16</title>
    <g id="Icon-Architecture/16/Arch_Amazon-WorkSpaces-Thin-Client_16" stroke="none" stroke-width="1" fill="none" fill-rule="evenodd">
        <g id="Icon-Architecture-BG/16/End-User-Computing" fill="#01A88D">
            <rect id="Rectangle" x="0" y="0" width="24" height="24"></rect>
        </g>
        <g id="Icon-Service/16/Amazon-WorkSpaces-Thin-Client_16" transform="translate(4.000000, 4.000000)" fill="#FFFFFF">
            <path d="M13,14 L15,14 L15,12 L13,12 L13,14 Z M16,11.5 L16,14.5 C16,14.776 15.776,15 15.5,15 L12.5,15 C12.224,15 12,14.776 12,14.5 L12,11.5 C12,11.496 12.002,11.493 12.002,11.489 C11.397,11.032 11,10.315 11,9.5 L11,7.582 L10.354,8.229 L9.646,7.521 L11.146,6.021 C11.342,5.826 11.658,5.826 11.854,6.021 L13.354,7.521 L12.646,8.229 L12,7.582 L12,9.5 C12,10.327 12.673,11 13.5,11 L15.5,11 C15.776,11 16,11.224 16,11.5 L16,11.5 Z M10,12 L9,12 L8,12 L7,12 L7,15 L10,15 L10,12 Z M11,11.5 L11,15.5 C11,15.776 10.776,16 10.5,16 L6.5,16 C6.224,16 6,15.776 6,15.5 L6,11.5 C6,11.224 6.224,11 6.5,11 L8,11 L8,5.582 L7.354,6.229 L6.646,5.521 L8.146,4.021 C8.342,3.826 8.658,3.826 8.854,4.021 L10.354,5.521 L9.646,6.229 L9,5.582 L9,11 L10.5,11 C10.776,11 11,11.224 11,11.5 L11,11.5 Z M2,14 L4,14 L4,12 L2,12 L2,14 Z M4.998,11.489 C4.998,11.493 5,11.496 5,11.5 L5,14.5 C5,14.776 4.776,15 4.5,15 L1.5,15 C1.224,15 1,14.776 1,14.5 L1,11.5 C1,11.224 1.224,11 1.5,11 L3.5,11 C4.327,11 5,10.327 5,9.5 L5,7.582 L4.354,8.229 L3.646,7.521 L5.146,6.021 C5.342,5.826 5.658,5.826 5.854,6.021 L7.354,7.521 L6.646,8.229 L6,7.582 L6,9.5 C6,10.315 5.603,11.032 4.998,11.489 L4.998,11.489 Z M3,10 C1.346,10 0,8.654 0,7 C0,5.346 1.346,4 3,4 C3,1.794 4.794,0 7,0 C8.475,0 9.798,0.797 10.496,2.067 C10.661,2.023 10.831,2 11,2 C12.103,2 13,2.897 13,4 C14.654,4 16,5.346 16,7 C16,8.654 14.654,10 13,10 L13,9 C14.103,9 15,8.103 15,7 C15,5.897 14.103,5 13,5 L12.408,5 C12.246,5 12.094,4.921 12,4.789 C11.906,4.656 11.883,4.486 11.937,4.333 C11.979,4.213 12,4.104 12,4 C12,3.277 11.171,2.747 10.5,3.141 C10.374,3.215 10.223,3.231 10.085,3.182 C9.946,3.135 9.836,3.03 9.782,2.895 C9.324,1.744 8.232,1 7,1 C5.346,1 4,2.346 4,4 C4,4.134 4.021,4.263 4.04,4.392 C4.062,4.536 4.022,4.699 3.927,4.81 C3.832,4.919 3.696,5 3.551,5 L3,5 C1.897,5 1,5.897 1,7 C1,8.103 1.897,9 3,9 L4,9 L4,10 L3,10 Z" id="Fill-7"></path>
        </g>
    </g>
</svg>