<?xml version="1.0" encoding="UTF-8"?>
<svg width="24px" height="24px" viewBox="0 0 24 24" version="1.1" xmlns="http://www.w3.org/2000/svg" xmlns:xlink="http://www.w3.org/1999/xlink">
    <title>Icon-Architecture/16/Arch_AWS-Thinkbox-Sequoia_16</title>
    <g id="Icon-Architecture/16/Arch_AWS-Thinkbox-Sequoia_16" stroke="none" stroke-width="1" fill="none" fill-rule="evenodd">
        <g id="Icon-Architecture-BG/16/Compute" fill="#ED7100">
            <rect id="Rectangle" x="0" y="0" width="24" height="24"></rect>
        </g>
        <g id="Icon-Service/16/AWS-ThinkBox-Sequoia_16" transform="translate(5.000000, 4.500000)" fill="#FFFFFF">
            <path d="M14,4 L14,11 C14,11.184 13.899,11.353 13.737,11.44 L7.237,14.94 C7.163,14.98 7.081,15 7,15 C6.919,15 6.837,14.98 6.763,14.94 L0.263,11.44 C0.101,11.353 0,11.184 0,11 L0,4 C0,3.816 0.101,3.647 0.263,3.56 L1.763,2.752 L2.237,3.633 L1,4.299 L1,10.701 L7,13.932 L13,10.701 L13,4.299 L11.763,3.633 L12.237,2.752 L13.737,3.56 C13.899,3.647 14,3.816 14,4 L14,4 Z M4.237,2.556 L3.763,1.675 L6.763,0.06 C6.911,-0.02 7.089,-0.02 7.237,0.06 L10.237,1.675 L9.763,2.556 L7,1.068 L4.237,2.556 Z M7,6.272 C7.469,7.471 8.267,8.522 9.388,9.418 L7,10.911 L4.612,9.418 C5.733,8.522 6.531,7.471 7,6.272 L7,6.272 Z M6.735,11.924 C6.816,11.975 6.908,12 7,12 C7.092,12 7.184,11.975 7.265,11.924 L10.541,9.876 C10.685,9.787 10.772,9.631 10.776,9.463 C10.779,9.294 10.697,9.135 10.559,9.04 C8.529,7.654 7.5,5.79 7.5,3.5 C7.5,3.224 7.276,3 7,3 C6.724,3 6.5,3.224 6.5,3.5 C6.5,5.79 5.471,7.654 3.441,9.04 C3.303,9.135 3.221,9.294 3.224,9.463 C3.228,9.631 3.315,9.787 3.459,9.876 L6.735,11.924 Z" id="AWS-ThinkBox-Sequoia_16_Squid"></path>
        </g>
    </g>
</svg>